<svg id="Capa_1" data-name="Capa 1" xmlns="http://www.w3.org/2000/svg" viewBox="0 0 1080 1080"><defs><style>.cls-1{fill:#80a2b7;}</style></defs><title>ApolloLogo</title><polygon class="cls-1" points="528.12 595.21 537.82 595.21 528.12 595.21 528.12 595.21"/><path class="cls-1" d="M732.79,727.69,577.17,345.48a9.06,9.06,0,0,0-8.38-5.63h-57a9,9,0,0,0-8.38,5.62L347.22,727.68a9,9,0,0,0,8.37,12.47h70.49a9.09,9.09,0,0,0,7.8-4.48,125.55,125.55,0,0,1,19-24.54,127.27,127.27,0,0,1,91.73-37.68q27.46,0,50.7,10a126.12,126.12,0,0,1,40.51,27.64,127.62,127.62,0,0,1,18.79,24.52,9.06,9.06,0,0,0,7.81,4.5h62A9.05,9.05,0,0,0,732.79,727.69Zm-144-142.53a3,3,0,0,1-2.22,2.7L569,591v6.06h-2.22v3.74a1,1,0,0,1-1,1h-.16l.3,3.63h-1.48c4.22,14.12-3.53,22.72-3.53,22.72-9.27-9.45-4.46-22.71-4.46-22.72h-1.78l.29-3.63h-.15a1,1,0,0,1-1-1v-.61h-.91l1.11,7.48h-3.57c11,30.47-9.21,49-9.21,49-24.24-20.4-11.66-49-11.66-49H526l1.11-7.48H525.9v.61a1,1,0,0,1-1,1h-.15l.29,3.63h-1.49c4.23,14.12-3.52,22.72-3.52,22.72-9.27-9.46-4.46-22.72-4.46-22.72h-1.78l.29-3.63h-.15a1,1,0,0,1-1-1v-3.74H511V591l-17.61-3.14a3,3,0,0,1-2.22-2.69V573.74a2,2,0,0,1,.14-.52l-.13.08c.08-1.75,23.05-42.85,25.44-47.13l.16-.27,0,0V499.17c0-14.39,1.1-16.73,5.6-25.74.67-1,1.69-2.56,3-4.4,7.68-11,11.49-17,14.82-17,2.71,0,14.09,16.16,17.36,21.41h0c2.41,3.76,3.86,6.35,4.68,10.58,1.65,6,1.18,10.51.92,18.65v14.08c.21,5.92.58,8.64,0,9.19l.59,1c4,7.11,24.82,44.47,25,45.9l-.33-.22a4.22,4.22,0,0,1,.37,1.09v11.42Z"/></svg>